<mxfile host="65bd71144e">
    <diagram id="1Uk5QSgU36uGxFoBFbX3" name="Page-1">
        <mxGraphModel dx="1306" dy="790" grid="1" gridSize="10" guides="1" tooltips="1" connect="1" arrows="1" fold="1" page="1" pageScale="1" pageWidth="1100" pageHeight="850" math="0" shadow="0">
            <root>
                <mxCell id="0"/>
                <mxCell id="1" parent="0"/>
                <mxCell id="18" value="" style="edgeStyle=none;html=1;" edge="1" parent="1" source="2" target="17">
                    <mxGeometry relative="1" as="geometry"/>
                </mxCell>
                <mxCell id="2" value="Start" style="ellipse;whiteSpace=wrap;html=1;" vertex="1" parent="1">
                    <mxGeometry x="380" width="120" height="60" as="geometry"/>
                </mxCell>
                <mxCell id="4" value="Даны два числа. Показать большее и меньшее число" style="rounded=1;whiteSpace=wrap;html=1;" vertex="1" parent="1">
                    <mxGeometry x="50" y="50" width="120" height="60" as="geometry"/>
                </mxCell>
                <mxCell id="20" value="" style="edgeStyle=none;html=1;" edge="1" parent="1" source="17" target="19">
                    <mxGeometry relative="1" as="geometry"/>
                </mxCell>
                <mxCell id="17" value="firstNumber,&lt;br&gt;secondNumber" style="shape=parallelogram;perimeter=parallelogramPerimeter;whiteSpace=wrap;html=1;fixedSize=1;" vertex="1" parent="1">
                    <mxGeometry x="380" y="140" width="120" height="60" as="geometry"/>
                </mxCell>
                <mxCell id="22" value="no" style="edgeStyle=none;html=1;" edge="1" parent="1" source="19" target="21">
                    <mxGeometry relative="1" as="geometry"/>
                </mxCell>
                <mxCell id="26" value="yes" style="edgeStyle=none;html=1;" edge="1" parent="1" source="19" target="25">
                    <mxGeometry relative="1" as="geometry"/>
                </mxCell>
                <mxCell id="19" value="if(firstNumber &amp;gt; secondNumber)" style="rhombus;whiteSpace=wrap;html=1;" vertex="1" parent="1">
                    <mxGeometry x="345" y="280" width="190" height="90" as="geometry"/>
                </mxCell>
                <mxCell id="24" value="no" style="edgeStyle=none;html=1;" edge="1" parent="1" source="21" target="23">
                    <mxGeometry relative="1" as="geometry"/>
                </mxCell>
                <mxCell id="28" value="" style="edgeStyle=none;html=1;" edge="1" parent="1" source="21" target="27">
                    <mxGeometry relative="1" as="geometry"/>
                </mxCell>
                <mxCell id="31" value="yes" style="edgeLabel;html=1;align=center;verticalAlign=middle;resizable=0;points=[];" vertex="1" connectable="0" parent="28">
                    <mxGeometry x="-0.303" y="-1" relative="1" as="geometry">
                        <mxPoint as="offset"/>
                    </mxGeometry>
                </mxCell>
                <mxCell id="21" value="if(firstNumber &amp;lt; secondNumber)" style="rhombus;whiteSpace=wrap;html=1;" vertex="1" parent="1">
                    <mxGeometry x="345" y="450" width="190" height="90" as="geometry"/>
                </mxCell>
                <mxCell id="30" value="yes" style="edgeStyle=none;html=1;" edge="1" parent="1" source="23" target="29">
                    <mxGeometry relative="1" as="geometry"/>
                </mxCell>
                <mxCell id="23" value="if(firstNumber == secondNumber)" style="rhombus;whiteSpace=wrap;html=1;" vertex="1" parent="1">
                    <mxGeometry x="345" y="620" width="190" height="90" as="geometry"/>
                </mxCell>
                <mxCell id="33" value="" style="edgeStyle=none;html=1;" edge="1" parent="1" source="25" target="32">
                    <mxGeometry relative="1" as="geometry">
                        <Array as="points">
                            <mxPoint x="930" y="330"/>
                            <mxPoint x="930" y="810"/>
                        </Array>
                    </mxGeometry>
                </mxCell>
                <mxCell id="25" value="Print first number greater than second number" style="shape=document;whiteSpace=wrap;html=1;boundedLbl=1;" vertex="1" parent="1">
                    <mxGeometry x="650" y="285" width="170" height="95" as="geometry"/>
                </mxCell>
                <mxCell id="34" style="edgeStyle=none;html=1;" edge="1" parent="1" source="27">
                    <mxGeometry relative="1" as="geometry">
                        <mxPoint x="930" y="492.5" as="targetPoint"/>
                    </mxGeometry>
                </mxCell>
                <mxCell id="27" value="Print second number greater than second number" style="shape=document;whiteSpace=wrap;html=1;boundedLbl=1;" vertex="1" parent="1">
                    <mxGeometry x="650" y="455" width="170" height="75" as="geometry"/>
                </mxCell>
                <mxCell id="35" style="edgeStyle=none;html=1;" edge="1" parent="1" source="29">
                    <mxGeometry relative="1" as="geometry">
                        <mxPoint x="930" y="667.5" as="targetPoint"/>
                    </mxGeometry>
                </mxCell>
                <mxCell id="29" value="Print first number equale second number" style="shape=document;whiteSpace=wrap;html=1;boundedLbl=1;" vertex="1" parent="1">
                    <mxGeometry x="650" y="625" width="170" height="85" as="geometry"/>
                </mxCell>
                <mxCell id="32" value="End" style="ellipse;whiteSpace=wrap;html=1;" vertex="1" parent="1">
                    <mxGeometry x="380" y="780" width="120" height="60" as="geometry"/>
                </mxCell>
            </root>
        </mxGraphModel>
    </diagram>
</mxfile>